<mxfile host="app.diagrams.net" modified="2023-08-27T19:20:27.965Z" agent="Mozilla/5.0 (X11; Linux x86_64) AppleWebKit/537.36 (KHTML, like Gecko) Chrome/116.0.0.0 Safari/537.36" etag="1P0AmWF6dqANZfPZQNjt" version="21.6.9" type="device">
  <diagram name="Página-1" id="r7Dmp1KG4LVQeCO9yeug">
    <mxGraphModel dx="1354" dy="860" grid="1" gridSize="10" guides="1" tooltips="1" connect="1" arrows="1" fold="1" page="1" pageScale="1" pageWidth="827" pageHeight="1169" background="#ffffff" math="0" shadow="0">
      <root>
        <mxCell id="0" />
        <mxCell id="1" parent="0" />
        <mxCell id="HCQNf0K5Za7anZb_OLYN-2" value="&lt;font style=&quot;font-size: 20px;&quot;&gt;Personas&lt;/font&gt;" style="whiteSpace=wrap;html=1;align=center;fontSize=20;" vertex="1" parent="1">
          <mxGeometry x="335.8" y="133.92000000000002" width="143.41" height="49.29" as="geometry" />
        </mxCell>
        <mxCell id="HCQNf0K5Za7anZb_OLYN-4" value="&lt;b style=&quot;font-size: 20px;&quot;&gt;DNI&lt;/b&gt;" style="text;html=1;strokeColor=none;fillColor=none;align=center;verticalAlign=middle;whiteSpace=wrap;rounded=0;fontSize=20;rotation=90;" vertex="1" parent="1">
          <mxGeometry x="424.95" y="72.60999999999999" width="68.29" height="24.29" as="geometry" />
        </mxCell>
        <mxCell id="HCQNf0K5Za7anZb_OLYN-5" value="nombre" style="text;html=1;strokeColor=none;fillColor=none;align=center;verticalAlign=middle;whiteSpace=wrap;rounded=0;fontSize=20;rotation=90;" vertex="1" parent="1">
          <mxGeometry x="383.53000000000003" y="53.43999999999999" width="80.38" height="31.43" as="geometry" />
        </mxCell>
        <mxCell id="HCQNf0K5Za7anZb_OLYN-14" value="" style="edgeStyle=orthogonalEdgeStyle;rounded=0;orthogonalLoop=1;jettySize=auto;html=1;" edge="1" parent="1" source="HCQNf0K5Za7anZb_OLYN-9" target="HCQNf0K5Za7anZb_OLYN-2">
          <mxGeometry relative="1" as="geometry">
            <Array as="points">
              <mxPoint x="238" y="210" />
              <mxPoint x="408" y="210" />
            </Array>
          </mxGeometry>
        </mxCell>
        <mxCell id="HCQNf0K5Za7anZb_OLYN-9" value="&lt;font style=&quot;font-size: 20px;&quot;&gt;Empleados&lt;/font&gt;" style="whiteSpace=wrap;html=1;align=center;fontSize=20;" vertex="1" parent="1">
          <mxGeometry x="165.87" y="232.14000000000001" width="143.41" height="49.29" as="geometry" />
        </mxCell>
        <mxCell id="HCQNf0K5Za7anZb_OLYN-15" value="" style="edgeStyle=orthogonalEdgeStyle;rounded=0;orthogonalLoop=1;jettySize=auto;html=1;" edge="1" parent="1" source="HCQNf0K5Za7anZb_OLYN-10" target="HCQNf0K5Za7anZb_OLYN-2">
          <mxGeometry relative="1" as="geometry">
            <Array as="points">
              <mxPoint x="565" y="210" />
              <mxPoint x="408" y="210" />
            </Array>
          </mxGeometry>
        </mxCell>
        <mxCell id="HCQNf0K5Za7anZb_OLYN-10" value="&lt;font style=&quot;font-size: 20px;&quot;&gt;Clientes&lt;/font&gt;" style="whiteSpace=wrap;html=1;align=center;fontSize=20;" vertex="1" parent="1">
          <mxGeometry x="493.24" y="232.14000000000001" width="143.41" height="49.29" as="geometry" />
        </mxCell>
        <mxCell id="HCQNf0K5Za7anZb_OLYN-11" value="apellido" style="text;html=1;strokeColor=none;fillColor=none;align=center;verticalAlign=middle;whiteSpace=wrap;rounded=0;fontSize=20;rotation=90;" vertex="1" parent="1">
          <mxGeometry x="346.65000000000003" y="52.4" width="78.3" height="31.43" as="geometry" />
        </mxCell>
        <mxCell id="HCQNf0K5Za7anZb_OLYN-12" value="email" style="text;html=1;strokeColor=none;fillColor=none;align=center;verticalAlign=middle;whiteSpace=wrap;rounded=0;fontSize=20;rotation=0;" vertex="1" parent="1">
          <mxGeometry x="75.5" y="248.03" width="55.86" height="31.43" as="geometry" />
        </mxCell>
        <mxCell id="HCQNf0K5Za7anZb_OLYN-13" value="telefono" style="text;html=1;strokeColor=none;fillColor=none;align=center;verticalAlign=middle;whiteSpace=wrap;rounded=0;fontSize=20;rotation=0;direction=west;" vertex="1" parent="1">
          <mxGeometry x="67.15000000000003" y="279.4599999999999" width="82.45" height="31.43" as="geometry" />
        </mxCell>
        <mxCell id="HCQNf0K5Za7anZb_OLYN-16" value="&lt;b&gt;cuil&lt;/b&gt;" style="text;html=1;strokeColor=none;fillColor=none;align=center;verticalAlign=middle;whiteSpace=wrap;rounded=0;fontSize=20;rotation=0;" vertex="1" parent="1">
          <mxGeometry x="165.87" y="200.00000000000003" width="60" height="31.43" as="geometry" />
        </mxCell>
        <mxCell id="HCQNf0K5Za7anZb_OLYN-18" value="fechaNacimiento" style="text;html=1;strokeColor=none;fillColor=none;align=center;verticalAlign=middle;whiteSpace=wrap;rounded=0;fontSize=20;rotation=0;" vertex="1" parent="1">
          <mxGeometry x="28.430000000000007" y="156.24" width="150" height="31.43" as="geometry" />
        </mxCell>
        <mxCell id="HCQNf0K5Za7anZb_OLYN-19" value="fechaIngreso" style="text;html=1;strokeColor=none;fillColor=none;align=center;verticalAlign=middle;whiteSpace=wrap;rounded=0;fontSize=20;rotation=0;" vertex="1" parent="1">
          <mxGeometry x="20.000000000000007" y="185.17" width="137.44" height="31.43" as="geometry" />
        </mxCell>
        <mxCell id="HCQNf0K5Za7anZb_OLYN-20" value="fechaEgreso" style="text;html=1;strokeColor=none;fillColor=none;align=center;verticalAlign=middle;whiteSpace=wrap;rounded=0;fontSize=20;rotation=0;" vertex="1" parent="1">
          <mxGeometry x="19.99999999999997" y="216.60000000000002" width="137.44" height="31.43" as="geometry" />
        </mxCell>
        <mxCell id="HCQNf0K5Za7anZb_OLYN-21" value="sueldoBásico" style="text;html=1;strokeColor=none;fillColor=none;align=center;verticalAlign=middle;whiteSpace=wrap;rounded=0;fontSize=20;rotation=0;" vertex="1" parent="1">
          <mxGeometry x="52.94000000000001" y="308.03" width="137.44" height="31.43" as="geometry" />
        </mxCell>
        <mxCell id="HCQNf0K5Za7anZb_OLYN-22" value="email (0,1)" style="text;html=1;strokeColor=none;fillColor=none;align=center;verticalAlign=middle;whiteSpace=wrap;rounded=0;fontSize=20;rotation=0;" vertex="1" parent="1">
          <mxGeometry x="640.37" y="232.13999999999996" width="110" height="31.43" as="geometry" />
        </mxCell>
        <mxCell id="HCQNf0K5Za7anZb_OLYN-23" value="telefono (0,1)" style="text;html=1;strokeColor=none;fillColor=none;align=center;verticalAlign=middle;whiteSpace=wrap;rounded=0;fontSize=20;rotation=0;" vertex="1" parent="1">
          <mxGeometry x="636.65" y="263.57000000000005" width="139.88" height="31.43" as="geometry" />
        </mxCell>
        <mxCell id="HCQNf0K5Za7anZb_OLYN-26" value="&lt;font style=&quot;font-size: 20px;&quot;&gt;Electrodomésticos&lt;/font&gt;" style="whiteSpace=wrap;html=1;align=center;fontSize=20;" vertex="1" parent="1">
          <mxGeometry x="326.67" y="576.79" width="160" height="49.29" as="geometry" />
        </mxCell>
        <mxCell id="HCQNf0K5Za7anZb_OLYN-27" value="&lt;font style=&quot;font-size: 20px;&quot;&gt;Categorías&lt;/font&gt;" style="whiteSpace=wrap;html=1;align=center;fontSize=20;" vertex="1" parent="1">
          <mxGeometry x="327.51" y="807.65" width="160" height="49.29" as="geometry" />
        </mxCell>
        <mxCell id="HCQNf0K5Za7anZb_OLYN-28" value="&lt;b&gt;codÚnico&lt;/b&gt;" style="text;html=1;strokeColor=none;fillColor=none;align=center;verticalAlign=middle;whiteSpace=wrap;rounded=0;fontSize=20;rotation=0;" vertex="1" parent="1">
          <mxGeometry x="507.71000000000004" y="601.43" width="80.38" height="31.43" as="geometry" />
        </mxCell>
        <mxCell id="HCQNf0K5Za7anZb_OLYN-29" value="nombre" style="text;html=1;strokeColor=none;fillColor=none;align=center;verticalAlign=middle;whiteSpace=wrap;rounded=0;fontSize=20;rotation=0;" vertex="1" parent="1">
          <mxGeometry x="227.69" y="601.4300000000001" width="78.3" height="31.43" as="geometry" />
        </mxCell>
        <mxCell id="HCQNf0K5Za7anZb_OLYN-30" value="modelo" style="text;html=1;strokeColor=none;fillColor=none;align=center;verticalAlign=middle;whiteSpace=wrap;rounded=0;fontSize=20;rotation=0;" vertex="1" parent="1">
          <mxGeometry x="508.75000000000006" y="569.9999999999999" width="78.3" height="31.43" as="geometry" />
        </mxCell>
        <mxCell id="HCQNf0K5Za7anZb_OLYN-32" value="stock" style="text;html=1;strokeColor=none;fillColor=none;align=center;verticalAlign=middle;whiteSpace=wrap;rounded=0;fontSize=20;rotation=0;" vertex="1" parent="1">
          <mxGeometry x="227.69000000000005" y="570" width="78.3" height="31.43" as="geometry" />
        </mxCell>
        <mxCell id="HCQNf0K5Za7anZb_OLYN-35" value="&lt;b&gt;nombre&lt;/b&gt;" style="text;html=1;strokeColor=none;fillColor=none;align=center;verticalAlign=middle;whiteSpace=wrap;rounded=0;fontSize=20;rotation=0;" vertex="1" parent="1">
          <mxGeometry x="364.88" y="868.29" width="78.3" height="31.43" as="geometry" />
        </mxCell>
        <mxCell id="HCQNf0K5Za7anZb_OLYN-38" value="&lt;b&gt;codÚnico&lt;/b&gt;" style="text;html=1;strokeColor=none;fillColor=none;align=center;verticalAlign=middle;whiteSpace=wrap;rounded=0;fontSize=20;rotation=0;" vertex="1" parent="1">
          <mxGeometry x="246.29" y="420" width="80.38" height="31.43" as="geometry" />
        </mxCell>
        <mxCell id="HCQNf0K5Za7anZb_OLYN-39" value="fecha" style="text;html=1;strokeColor=none;fillColor=none;align=center;verticalAlign=middle;whiteSpace=wrap;rounded=0;fontSize=20;rotation=0;" vertex="1" parent="1">
          <mxGeometry x="469.01" y="420.00000000000006" width="80.38" height="31.43" as="geometry" />
        </mxCell>
        <mxCell id="HCQNf0K5Za7anZb_OLYN-81" value="&lt;font style=&quot;font-size: 20px;&quot;&gt;tiene&lt;/font&gt;" style="shape=rhombus;perimeter=rhombusPerimeter;whiteSpace=wrap;html=1;align=center;fontSize=20;" vertex="1" parent="1">
          <mxGeometry x="359.40000000000003" y="698.29" width="92.61" height="50" as="geometry" />
        </mxCell>
        <mxCell id="HCQNf0K5Za7anZb_OLYN-82" value="" style="endArrow=none;html=1;rounded=0;entryX=0.5;entryY=0;entryDx=0;entryDy=0;" edge="1" parent="1" source="HCQNf0K5Za7anZb_OLYN-26" target="HCQNf0K5Za7anZb_OLYN-81">
          <mxGeometry relative="1" as="geometry">
            <mxPoint x="500.38" y="588.29" as="sourcePoint" />
            <mxPoint x="660.38" y="588.29" as="targetPoint" />
          </mxGeometry>
        </mxCell>
        <mxCell id="HCQNf0K5Za7anZb_OLYN-83" value="" style="endArrow=none;html=1;rounded=0;" edge="1" parent="1" source="HCQNf0K5Za7anZb_OLYN-81">
          <mxGeometry relative="1" as="geometry">
            <mxPoint x="423.23" y="650.29" as="sourcePoint" />
            <mxPoint x="404.23" y="808.29" as="targetPoint" />
          </mxGeometry>
        </mxCell>
        <mxCell id="HCQNf0K5Za7anZb_OLYN-86" value="(1,1)" style="text;html=1;strokeColor=none;fillColor=none;align=center;verticalAlign=middle;whiteSpace=wrap;rounded=0;fontSize=20;rotation=0;" vertex="1" parent="1">
          <mxGeometry x="413.17" y="626.0799999999999" width="36.47" height="31.43" as="geometry" />
        </mxCell>
        <mxCell id="HCQNf0K5Za7anZb_OLYN-89" value="(1,N)" style="text;html=1;strokeColor=none;fillColor=none;align=center;verticalAlign=middle;whiteSpace=wrap;rounded=0;fontSize=20;rotation=0;" vertex="1" parent="1">
          <mxGeometry x="407.50000000000006" y="776.2199999999999" width="36.47" height="31.43" as="geometry" />
        </mxCell>
        <mxCell id="HCQNf0K5Za7anZb_OLYN-90" value="vende" style="shape=rhombus;perimeter=rhombusPerimeter;whiteSpace=wrap;html=1;align=center;fontSize=20;" vertex="1" parent="1">
          <mxGeometry x="346.01" y="390" width="123" height="90" as="geometry" />
        </mxCell>
        <mxCell id="HCQNf0K5Za7anZb_OLYN-91" value="" style="endArrow=none;html=1;rounded=0;" edge="1" parent="1" source="HCQNf0K5Za7anZb_OLYN-9" target="HCQNf0K5Za7anZb_OLYN-90">
          <mxGeometry relative="1" as="geometry">
            <mxPoint x="500" y="510" as="sourcePoint" />
            <mxPoint x="660" y="510" as="targetPoint" />
          </mxGeometry>
        </mxCell>
        <mxCell id="HCQNf0K5Za7anZb_OLYN-92" value="" style="endArrow=none;html=1;rounded=0;" edge="1" parent="1" source="HCQNf0K5Za7anZb_OLYN-10" target="HCQNf0K5Za7anZb_OLYN-90">
          <mxGeometry relative="1" as="geometry">
            <mxPoint x="272" y="291" as="sourcePoint" />
            <mxPoint x="402" y="419" as="targetPoint" />
          </mxGeometry>
        </mxCell>
        <mxCell id="HCQNf0K5Za7anZb_OLYN-93" value="" style="endArrow=none;html=1;rounded=0;" edge="1" parent="1" source="HCQNf0K5Za7anZb_OLYN-90" target="HCQNf0K5Za7anZb_OLYN-26">
          <mxGeometry relative="1" as="geometry">
            <mxPoint x="555" y="291" as="sourcePoint" />
            <mxPoint x="451" y="417" as="targetPoint" />
          </mxGeometry>
        </mxCell>
        <mxCell id="HCQNf0K5Za7anZb_OLYN-94" value="(1,N)" style="text;html=1;strokeColor=none;fillColor=none;align=center;verticalAlign=middle;whiteSpace=wrap;rounded=0;fontSize=20;rotation=0;" vertex="1" parent="1">
          <mxGeometry x="546.71" y="281.42999999999995" width="36.47" height="31.43" as="geometry" />
        </mxCell>
        <mxCell id="HCQNf0K5Za7anZb_OLYN-95" value="(1,N)" style="text;html=1;strokeColor=none;fillColor=none;align=center;verticalAlign=middle;whiteSpace=wrap;rounded=0;fontSize=20;rotation=0;" vertex="1" parent="1">
          <mxGeometry x="225.87000000000006" y="279.4599999999999" width="36.47" height="31.43" as="geometry" />
        </mxCell>
        <mxCell id="HCQNf0K5Za7anZb_OLYN-96" value="(1,1)" style="text;html=1;strokeColor=none;fillColor=none;align=center;verticalAlign=middle;whiteSpace=wrap;rounded=0;fontSize=20;rotation=0;" vertex="1" parent="1">
          <mxGeometry x="415.5400000000001" y="545.3599999999999" width="36.47" height="31.43" as="geometry" />
        </mxCell>
      </root>
    </mxGraphModel>
  </diagram>
</mxfile>
